<?xml version="1.0" standalone="no"?>
<!DOCTYPE svg PUBLIC "-//W3C//DTD SVG 20010904//EN"
 "http://www.w3.org/TR/2001/REC-SVG-20010904/DTD/svg10.dtd">
<svg version="1.0" xmlns="http://www.w3.org/2000/svg"
 width="128.000000pt" height="128.000000pt" viewBox="0 0 128.000000 128.000000"
 preserveAspectRatio="xMidYMid meet">
<metadata>
Created by potrace 1.14, written by Peter Selinger 2001-2017
</metadata>
<g transform="translate(0.000000,128.000000) scale(0.100000,-0.100000)"
fill="#000000" stroke="none">
<path d="M55 1145 c-49 -49 -15 -135 54 -135 34 0 100 -60 102 -94 1 -11 3
-30 4 -41 1 -11 5 -56 9 -100 4 -44 9 -98 11 -120 6 -47 12 -117 21 -229 7
-100 20 -130 57 -134 26 -3 26 -4 12 -25 -26 -37 -19 -94 15 -129 28 -28 36
-30 78 -25 34 4 53 12 69 32 27 31 31 89 8 121 l-14 21 229 1 230 1 -16 -25
c-24 -36 -13 -102 22 -133 38 -32 108 -25 141 14 27 31 31 90 8 122 -15 21
-14 22 21 25 45 4 65 28 47 57 -10 15 -9 25 2 48 12 25 24 90 39 218 11 90 17
131 21 155 10 62 17 127 16 149 -3 52 10 51 -481 51 l-458 0 -56 58 c-31 31
-56 65 -56 75 0 29 -45 67 -80 67 -19 0 -40 -9 -55 -25z m409 -351 c3 -9 6
-75 6 -149 0 -101 -3 -135 -14 -144 -22 -18 -26 7 -26 149 0 126 4 160 20 160
4 0 11 -7 14 -16z m206 -141 c0 -145 -4 -170 -26 -152 -19 15 -20 279 -2 297
22 22 28 -9 28 -145z m194 141 c3 -9 6 -75 6 -149 0 -101 -3 -135 -14 -144
-22 -18 -26 7 -26 149 0 126 4 160 20 160 4 0 11 -7 14 -16z m206 -139 c0
-147 -4 -172 -26 -154 -11 9 -14 43 -14 144 0 147 4 172 26 154 11 -9 14 -43
14 -144z"/>
</g>
</svg>
